<svg width="36" height="24" viewBox="0 0 36 24" fill="none" xmlns="http://www.w3.org/2000/svg">
<rect width="36" height="24" rx="4" fill="white"/>
<path d="M14.3145 6C17.8019 6 20.6287 8.85984 20.6289 12.3877C20.6289 15.9157 17.802 18.7764 14.3145 18.7764C10.8271 18.7762 8 15.9156 8 12.3877C8.00016 8.85992 10.8272 6.00013 14.3145 6Z" fill="#ED0006"/>
<path d="M22.5059 6C25.9933 6 28.8201 8.85984 28.8203 12.3877C28.8203 15.9157 25.9934 18.7764 22.5059 18.7764C19.0185 18.7762 16.1914 15.9156 16.1914 12.3877C16.1916 8.85992 19.0186 6.00013 22.5059 6Z" fill="#0099DF"/>
<path d="M18.4102 7.52661C19.768 8.69828 20.6299 10.441 20.6299 12.3879C20.6299 14.3346 19.7677 16.0766 18.4102 17.2483C17.0529 16.0766 16.1914 14.3344 16.1914 12.3879C16.1914 10.4412 17.0526 8.69828 18.4102 7.52661Z" fill="#6C6BBD"/>
</svg>
