<?xml version="1.0" encoding="utf-8"?>
<!-- Generator: Adobe Illustrator 23.0.4, SVG Export Plug-In . SVG Version: 6.00 Build 0)  -->
<svg version="1.1" xmlns="http://www.w3.org/2000/svg" xmlns:xlink="http://www.w3.org/1999/xlink" x="0px" y="0px"
	 viewBox="0 0 522.9 168.8" style="enable-background:new 0 0 522.9 168.8;" xml:space="preserve">
<style type="text/css">
	.st0{fill:#FFFFFF;}
	.st1{fill:#30BA9D;}
	.st2{fill:#1A9F83;}
</style>
<g id="Warstwa_2">
</g>
<g id="Warstwa_1">
	<g>
		<path class="st0" d="M193.3,112.3c0,0,8.9,10.5,21.8,10.5c8.1,0,14.9-4.9,14.9-12.9c0-18.2-42-15.4-42-42.5
			c0-13.1,11.5-23.3,27.8-23.3c9.2,0,24.7,4.2,24.7,16v7.1h-11.3v-4.1c0-4.6-6.5-7.9-13.4-7.9c-9.4,0-15.3,5.2-15.3,11.7
			c0,17.6,41.9,13.7,41.9,42.2c0,13.3-10.3,24.7-27.6,24.7c-18.5,0-28.8-12.9-28.8-12.9L193.3,112.3z"/>
		<path class="st0" d="M262.1,148c4.8,0,8.6-3.4,11-9l2.8-6.8l-21.3-49.4c-0.9-2-2-2.5-3.9-2.5h-1.5V70.2h7c5,0,6.9,1.4,8.9,6.3
			l14.2,35.1c1.2,3.2,2.2,7.5,2.2,7.5h0.2c0,0,0.9-4.3,2.1-7.5l12.9-35.1c1.8-4.9,4.1-6.3,9.1-6.3h7.1v10.2h-1.6
			c-2,0-3.1,0.5-3.9,2.5l-24.6,60.8c-3.8,9.6-11.3,14.7-20.1,14.7c-9.2,0-14.7-6.2-14.7-6.2l4.9-8.6C253,143.7,256.9,148,262.1,148z
			"/>
		<path class="st0" d="M324.9,58.5c0-1.8-1-2.7-2.7-2.7h-5V45.5H329c5.5,0,7.9,2.3,7.9,7.9v66.1c0,1.8,1,2.7,2.7,2.7h5v10.2h-11.8
			c-5.5,0-7.9-2.3-7.9-7.9V58.5z"/>
		<path class="st0" d="M362.2,83.1c0-1.8-1-2.7-2.7-2.7h-5V70.2h11.7c5.5,0,7.9,2.3,7.9,7.9v41.5c0,1.8,1,2.7,2.7,2.7h5v10.2h-11.7
			c-5.5,0-7.9-2.3-7.9-7.9V83.1z M362.5,45.5h10.7V58h-10.7V45.5z"/>
		<path class="st0" d="M396.9,83.1c0-1.8-1-2.7-2.7-2.7h-5V70.2h11.7c5.7,0,8,2.3,8,7.6v29.5c0,8.6,1.7,15.5,11.6,15.5
			c12.8,0,20.3-11.2,20.3-23.5V70.2h11.9v49.4c0,1.8,1,2.7,2.7,2.7h5v10.2H449c-5.3,0-7.9-2.5-7.9-6.9v-2.3c0-2,0.1-3.6,0.1-3.6H441
			c-2.6,6.2-10.6,14.3-22.9,14.3c-14,0-21.2-7.4-21.2-23.9V83.1z"/>
		<path class="st0" d="M474.3,115c0,0,7.4,9.2,18.8,9.2c5.8,0,10.8-2.6,10.8-8c0-11.2-34-10-34-30c0-11.9,10.5-17.5,23.1-17.5
			c7.5,0,20.4,2.6,20.4,12.1v5.9h-10.7v-3.1c0-3.7-5.5-5.3-9.4-5.3c-7,0-11.6,2.5-11.6,7.4c0,11.8,34,9.2,34,30
			c0,11.1-9.8,18.2-22.9,18.2c-16.6,0-24.9-11-24.9-11L474.3,115z"/>
		<polygon class="st1" points="27.8,97.3 57.7,157.2 113,157.2 126.4,138.4 		"/>
		<polygon class="st2" points="7,103.8 47.2,159.1 113,159.2 126.4,138.5 		"/>
		<polygon class="st2" points="55.2,36.5 74.8,51.7 92.6,17.7 86.5,13.9 		"/>
		<polygon class="st1" points="113,159.2 55.2,36.5 67.6,27.6 134.8,125.5 		"/>
		<polygon class="st1" points="81,17.9 118.6,48.3 92.2,9.5 		"/>
	</g>
</g>
</svg>
