<svg width="946" height="714" viewBox="0 0 946 714" fill="none" xmlns="http://www.w3.org/2000/svg">
<g clip-path="url(#clip0_2_27)">
<path d="M941.839 656.792C936.139 656.586 930.429 656.705 924.361 656.705C925.466 641.437 919.745 630.027 907.977 621.575C886.338 613.178 877.041 611.476 856.919 623.764C845.519 631.599 836.666 641.567 830.468 653.942C829.862 655.166 828.366 656.716 827.218 656.77C821.366 657.052 815.493 656.9 808.84 656.9H808.829C811.419 650.171 813.835 644.406 815.851 638.501C818.82 629.811 821.29 620.947 824.454 612.332C826.297 601.096 828.464 589.924 828.442 578.405C828.366 570.094 827.9 561.751 826.871 553.505C825.365 541.553 821.15 530.164 816.967 518.928C810.834 511.581 805.037 504.657 799.25 497.722C795.956 493.778 797.408 485.705 802.003 483.516C814.215 477.686 826.492 471.998 838.747 466.265C850.287 460.869 860.429 453.75 866.227 442.015C882.383 409.302 895.126 375.418 898.019 338.695C898.767 329.149 898.344 319.017 895.906 309.829C890.911 291.018 876.304 284.668 859.032 293.391C851.457 297.216 843.634 302.254 838.465 308.756C828.41 321.412 820.033 335.423 811.17 349.011C807.074 355.296 803.444 361.884 799.597 368.331C798.253 366.197 798.004 364.333 798.004 362.469C797.907 341.892 797.842 321.315 797.788 300.737C797.701 268.067 797.777 235.387 797.473 202.717C797.343 188.207 792.781 174.934 783.322 163.794C771.359 149.708 755.506 144.723 737.454 144.723C618.834 144.777 500.203 144.702 381.584 144.68C323.807 144.669 266.019 144.604 208.243 144.745C184.772 144.81 166.817 154.465 156.133 176.06C150.867 186.701 149.513 198.057 149.534 209.738C149.621 261.024 149.654 312.299 149.708 363.585V369.252C149.372 369.328 149.025 369.404 148.689 369.48C147.519 367.757 146.24 366.099 145.211 364.3C137.777 351.308 130.593 338.164 122.943 325.291C115.358 312.527 105.801 301.344 92.0828 294.994C69.3818 284.495 55.0785 290.433 50.1807 315.864C47.9485 327.437 49.2163 340.028 50.7658 351.915C54.4067 379.882 65.1883 405.812 75.7749 431.71C83.295 450.12 96.6122 462.44 115.109 469.679C124.493 473.352 133.259 478.629 142.664 482.237C149.058 484.686 149.87 488.858 149.112 494.439C148.993 495.295 148.928 496.335 148.429 496.963C142.361 504.657 136.206 512.296 129.889 520.185C117.58 544.598 114.34 587.963 123.236 616.428C126.714 630.515 132.165 643.81 141.321 656.738C133.031 656.738 125.782 656.846 118.555 656.597C117.623 656.564 116.507 654.809 115.889 653.628C109.724 641.903 101.152 632.411 90.3274 624.761C86.4374 622.551 82.5148 620.318 78.3972 618.606C63.5413 612.246 45.3262 615.161 34.1762 627.026C23.1995 637.959 25.6701 654.31 7.34668 657.171C4.85445 657.366 2.45973 658.688 0.0216675 659.501C2.39471 660.194 4.75692 661.494 7.12997 661.494C67.0737 661.755 127.028 661.885 186.972 662.036H195.901V708.565C180.828 708.565 165.311 708.554 149.805 708.576C148.191 708.587 146.479 708.457 144.983 708.934C144.073 709.226 143.499 710.57 142.773 711.437C143.553 712.033 144.268 712.889 145.157 713.171C146.143 713.485 147.302 713.29 148.386 713.29C214.116 713.311 279.846 713.311 345.576 713.311C347.017 713.311 348.502 713.366 349.867 713.019C350.55 712.846 351.568 711.719 351.471 711.198C351.308 710.321 350.539 709.194 349.748 708.89C348.643 708.468 347.277 708.663 346.02 708.663C324.891 708.663 303.771 708.663 282.642 708.63C281.092 708.63 279.543 708.381 278.091 708.251V662.123H283.411C314.293 662.112 345.164 662.091 376.046 662.091C395.909 662.091 415.771 662.166 435.633 662.004C437.421 661.982 439.187 660.508 440.964 659.707C439.143 658.818 437.377 657.334 435.503 657.171C431.082 656.792 426.596 657.052 421.882 657.052C421.687 653.606 421.644 650.745 421.362 647.917C419.498 628.76 398.065 618.281 382.667 629.074C374.334 634.914 367.985 642.445 365.221 652.457C364.084 656.586 362.057 658.33 357.474 656.532C365.687 636.995 369.242 617.284 357.777 597.108C360.118 596.967 361.7 596.805 363.282 596.805C401.381 596.685 439.479 596.566 477.578 596.48C494.005 596.447 510.432 596.425 526.859 596.501C529.579 596.501 532.57 595.916 533.35 600.261C535.571 612.592 542.701 621.489 553.505 627.654C554.924 628.456 556.864 630.038 556.896 631.306C557.156 642.391 557.048 653.476 557.048 665.991C554.686 662.318 553.082 659.815 551.478 657.312C545.779 648.437 539.494 640.05 530.424 634.351C528.041 632.855 524.931 632.52 522.157 631.653C522.048 634.405 521.192 637.385 521.962 639.855C527.867 658.753 534.065 677.575 540.253 696.386C541.509 700.233 543.081 703.982 544.663 708.154H523.945C526.708 700.168 526.112 696.646 521.463 693.2C514.669 688.172 509.511 692.041 504.679 696.971C499.141 689.689 494.254 682.289 485.315 679.71C482.855 678.994 479.312 678.117 477.773 679.287C476.3 680.414 476.007 684.271 476.527 686.634C478.109 693.883 480.33 700.991 482.476 708.771C469.744 708.771 456.947 708.641 444.16 708.88C441.712 708.923 439.284 710.386 436.846 711.198C439.187 711.892 441.516 713.192 443.857 713.192C507.962 713.333 572.066 713.333 636.171 713.355C639.78 713.366 643.41 713.528 646.996 713.257C648.08 713.171 649.077 711.881 650.106 711.144C649.077 710.191 648.156 708.598 646.996 708.392C644.602 707.959 642.077 708.262 639.498 708.262C641.08 697.914 636.507 690.134 628.586 689.895C625.639 689.809 621.38 691.033 619.928 693.168C617.024 697.437 615.637 702.746 613.383 708.229H601.377C601.93 705.846 602.309 703.928 602.819 702.031C606.806 687.186 610.349 672.255 610.057 656.748C610.024 654.874 608.767 653.01 608.074 651.146C606.275 652.046 603.956 652.512 602.775 653.931C598.863 658.634 595.309 663.64 591.734 668.614C589.816 671.279 588.147 674.107 586.359 676.86C585.384 666.349 585.503 656.261 585.232 646.184C585.2 644.84 583.173 643.54 582.068 642.228C581.429 643.713 580.139 645.262 580.248 646.693C581.775 666.262 580.822 685.626 575.621 704.632C575.241 706.041 573.865 708.067 572.717 708.24C569.444 708.728 566.042 708.414 562.542 708.414V631.718C563.354 631.718 563.734 631.631 564.07 631.718C587.757 637.547 610.555 621.803 614.131 599.611C614.337 598.332 617.057 596.631 618.661 596.566C625.866 596.274 633.094 596.501 640.321 596.534C643.984 596.545 647.646 596.534 649.857 596.534C648.676 607.738 646.064 617.967 646.975 627.871C647.874 637.764 652.306 647.321 655.166 656.965C655.091 656.965 654.018 657.074 652.956 657.074C642.12 657.041 631.284 656.857 620.459 657.074C618.368 657.117 616.309 658.731 614.229 659.62C616.19 660.335 618.14 661.646 620.123 661.69C631.674 661.96 643.236 661.982 654.787 661.982C739.838 661.982 824.888 661.96 909.938 661.917C920.59 661.906 931.242 661.863 941.882 661.538C943.291 661.495 944.645 659.631 946.022 658.612C944.635 657.973 943.269 656.846 941.861 656.792H941.839ZM883.326 297.129C888.462 302.363 890.976 308.431 892.482 314.878C895.765 328.889 893.305 342.845 891.387 356.759C891.247 357.745 890.163 358.991 889.209 359.403C873.866 365.947 858.468 372.373 842.106 379.232C855.835 351.655 869.001 325.237 882.166 298.819C882.404 298.354 882.762 297.942 883.326 297.129ZM798.481 381.789C798.492 379.438 799.326 376.827 800.561 374.811C811.495 357.019 822.146 339.02 833.817 321.705C842.919 308.193 854.155 296.685 871.688 294.507C873.66 294.258 875.719 294.724 878.677 294.929H878.699C869.098 314.065 860.018 332.183 850.471 351.222C845.238 343.171 840.513 335.911 835.8 328.651C835.117 328.813 834.423 328.965 833.741 329.116C833.871 330.818 833.437 332.876 834.228 334.177C838.064 340.483 842.366 346.497 846.159 352.825C847.156 354.494 847.882 357.333 847.145 358.882C830.978 393.08 814.594 427.17 798.546 460.663C798.546 460.663 798.221 459.396 798.221 458.139C798.253 432.685 798.275 407.243 798.481 381.789ZM804.083 462.191C815.179 437.518 826.437 412.932 837.75 388.356C838.433 386.882 839.809 385.289 841.25 384.693C856.897 378.257 872.62 372.005 890.185 364.951C886.175 377.65 883.141 389.125 878.904 400.145C873.671 413.733 867.733 427.083 861.535 440.27C857.33 449.199 850.005 455.451 841.142 459.721C827.976 466.06 814.746 472.236 801.537 478.467C800.778 478.824 799.933 478.998 797.592 479.734C800.009 473.135 801.688 467.501 804.083 462.191ZM68.5583 656.878C56.4871 656.889 44.4052 656.705 32.3449 657.084C27.2413 657.247 26.667 654.917 27.1221 650.875C29.701 628.304 48.7937 614.662 70.8338 620.611C89.8181 625.736 102.171 639.238 112.801 656.878C96.959 656.878 82.7532 656.868 68.5583 656.878ZM399.018 629.832C410.396 630.829 418.978 644.493 415.781 656.662H369.632C370.152 643.171 386.21 628.716 399.018 629.832ZM484.546 699.203C482.638 694.576 481.392 689.689 479.659 684.326C490.592 685.333 501.038 696.57 502.793 707.612H502.804C491.871 710.559 488.652 709.216 484.546 699.203ZM513.022 708.121C510.064 708.197 507.973 706.745 508.168 703.017C508.341 699.507 512.654 694.847 515.558 695.844C517.768 696.603 520.282 699.127 520.878 701.338C521.767 704.675 517.367 708.229 513.022 708.121ZM627.589 694.63C631.772 694.695 635.023 697.979 635.066 702.183C635.109 706.658 632.66 708.62 626.397 708.479H626.386C623.071 708.587 620.015 707.352 619.939 702.595C619.874 698.087 623.32 694.576 627.589 694.63ZM604.942 660.01C604.281 675.754 601.301 691.033 596.415 705.932C596.079 706.962 594.54 708.229 593.5 708.294C589.068 708.554 584.604 708.403 579.608 708.403C584.138 689.592 591.983 673.566 604.942 660.01ZM660.53 170.545C673.869 170.339 687.219 170.415 700.558 170.415C712.824 170.415 725.09 170.328 737.345 170.567C749.796 170.805 757.587 183.581 751.681 193.788C748.831 198.707 744.562 201.178 738.754 201.135C725.415 201.037 712.065 201.102 698.726 201.102V201.275C685.918 201.275 673.121 201.319 660.313 201.265C650.334 201.221 644.591 195.901 644.558 186.81C644.515 177.74 651.233 170.686 660.53 170.545ZM251.304 174.576C257.838 174.327 263.267 179.669 263.397 186.463H263.386C263.516 193.138 258.738 197.96 251.868 198.101C245.507 198.231 240.404 193.333 240.36 187.059C240.317 180.395 245.215 174.803 251.304 174.576ZM209.586 174.446C215.676 174.468 221.354 180.416 221.408 186.831C221.463 193.181 216.316 197.96 209.435 197.96C202.63 197.96 197.97 193.214 198.068 186.365C198.155 179.994 203.54 174.424 209.586 174.446ZM91.7469 300.391C102.453 306.524 110.981 315.106 117.309 325.627C127.917 343.246 138.189 361.071 148.548 378.842C149.144 379.871 149.578 381.172 149.578 382.353C149.632 409.063 149.621 435.784 149.621 462.495C149.209 462.57 148.787 462.635 148.375 462.711V462.69C142.643 449.481 137.138 436.174 131.135 423.085C121.361 401.771 111.316 380.587 101.207 359.424C99.9171 356.715 100.275 355.09 101.933 352.717C106.18 346.66 110.135 340.386 113.83 333.982C114.773 332.356 114.307 329.907 114.48 327.838C112.823 329.084 110.645 329.983 109.583 331.62C105.563 337.785 101.911 344.167 97.3924 351.698C87.6835 332.346 78.5489 314.141 69.0675 295.233C77.8012 294.117 85.0179 296.533 91.7469 300.391ZM56.3029 356.737C55.4144 344.005 54.1249 331.262 54.2441 318.541C54.3091 310.891 58.5785 304.227 64.4731 297.693C78.4947 325.129 92.2129 352.002 105.931 378.875L105.173 379.882C102.908 378.961 100.611 378.073 98.3676 377.087C85.1587 371.3 71.939 365.536 58.7843 359.63C57.7008 359.153 56.3788 357.777 56.3029 356.737ZM138.33 474.512C126.888 469.191 115.347 464.066 104.035 458.496C96.4172 454.747 90.555 448.809 86.4157 441.397C73.5861 418.393 66.2286 393.265 58.3509 368.342C58.0908 367.54 58.1017 366.663 57.8633 364.864C60.5397 365.839 62.5119 366.457 64.4081 367.269C78.148 373.207 91.8878 379.135 105.563 385.214C107.231 385.95 109.128 387.316 109.832 388.887C122.987 418.165 135.979 447.498 148.971 476.841C149.231 477.426 149.209 478.152 149.48 479.778C145.298 477.795 141.819 476.137 138.33 474.512ZM254.512 708.197H220.271C220.271 703.808 220.141 699.539 220.368 695.281C220.411 694.425 221.766 692.929 222.535 692.918C233.089 692.756 243.643 692.81 254.501 692.81H254.512V708.197ZM266.117 708.728C262.043 708.598 258.803 708.338 259.399 702.985C259.637 700.839 259.453 698.661 259.55 696.494C259.821 691.109 257.167 688.422 251.586 688.422H215.59C215.21 693.742 215.102 698.412 214.452 703.017C214.181 704.957 213.011 708.121 211.83 708.327C208.091 708.977 203.583 709.855 201.46 705.098C200.604 703.191 200.235 700.915 200.235 698.802C200.17 667.389 200.062 635.976 200.376 604.574C200.419 600.771 201.644 597.541 199.422 593.521C187.525 571.98 190.765 547.805 207.116 531.779C225.158 514.095 250.08 510.595 271.795 522.688C290.075 532.873 300.38 554.285 296.696 574.407C292.86 595.363 276.194 612.354 256.17 615.41H256.159C255.617 604.899 254.772 602.959 249.072 602.548C240.003 601.898 239.114 609.667 236.492 616.017C233.88 615.475 231.291 614.955 226.956 614.066C230.359 619.278 232.992 623.309 236.438 628.597C238.02 625.249 239.493 622.561 240.588 619.733C241.888 616.385 242.538 612.744 244.153 609.569C244.792 608.312 247.588 607.077 248.834 607.5C250.134 607.944 251.835 610.718 251.478 611.921C249.365 619.137 247.707 626.777 244.001 633.17C238.128 643.301 227.877 642.651 221.69 632.639C220.758 631.133 219.751 629.67 218.786 628.185C218.179 628.25 217.562 628.304 216.955 628.369C216.955 630.266 216.37 632.4 217.063 633.993C219.751 640.18 224.334 644.363 231.312 644.97C238.594 645.609 244.554 642.759 248.238 636.485C250.578 632.487 251.64 627.763 253.84 623.656C254.826 621.803 256.95 620.048 258.944 619.343C262.953 617.935 267.233 617.284 272.142 616.147C272.142 620.308 272.131 624.241 272.142 628.164C272.239 653.064 272.218 677.965 272.553 702.866C272.629 708.002 270.495 708.858 266.117 708.728ZM277.538 614.998C277.57 613.752 278.156 612.148 279.055 611.335C283.021 607.727 287.193 604.357 291.256 600.933C297.79 612.777 291.744 629.128 277.473 635.684C277.473 628.315 277.386 621.651 277.538 614.998ZM287.854 655.491C285.784 657.355 281.688 656.944 277.505 657.756C277.505 652.533 277.332 648.437 277.614 644.374C277.69 643.247 278.903 641.849 279.976 641.177C295.775 631.208 301.908 617.393 296.988 599.069C296.847 598.582 296.967 598.029 296.967 596.967H296.977L310.36 596.956C309.471 601.041 308.94 604.563 307.922 607.944C304.346 619.809 301.008 631.772 296.707 643.377C295.016 647.928 291.527 652.197 287.854 655.491ZM315.008 599.416C315.268 598.376 316.753 596.902 317.696 596.881C327.155 596.696 336.626 596.761 346.367 598.051C333.754 608.865 321.131 619.679 307.141 631.664C309.959 619.972 312.386 609.667 315.008 599.416ZM359.749 618.086C361.342 630.602 359.056 642.51 353.822 653.866C353.161 655.286 351.124 657.019 349.715 657.019C331.695 657.128 313.675 656.954 295.655 656.824C295.363 656.813 295.07 656.51 294.756 656.326H294.745C300.705 643.702 310.23 634.676 320.686 626.289C331.49 617.631 341.784 608.345 352.522 599.134C357.235 604.769 358.882 611.292 359.749 618.086ZM547.968 703.494C541.91 685.745 535.301 668.202 529.081 650.518C527.683 646.552 527.011 642.337 525.7 636.995C540.372 647.397 548.824 660.92 556.593 674.985C557.005 675.733 557.178 676.708 557.178 677.586C557.211 687.663 557.2 697.74 557.2 707.85H557.211C551.695 709.703 549.55 708.121 547.968 703.494ZM574.786 628.434C554.296 628.51 537.305 612.766 537.305 593.662C537.305 574.19 553.743 558.413 574.169 558.294C593.261 558.186 609.948 574.32 610.046 592.99C610.144 611.401 593.272 628.359 574.786 628.434ZM542.105 561.469C490.126 561.61 438.136 561.512 386.156 561.404C373.305 561.382 365.882 555.455 364.3 544.262C362.762 533.383 370.26 523.143 381.085 521.485C383.751 521.084 386.471 520.943 389.169 520.943C417.147 520.911 445.125 520.921 473.103 520.921V520.867C500.908 520.867 528.691 520.932 556.485 520.824C565.944 520.791 574.385 522.948 578.731 532.071C580.627 536.037 581.602 541.109 581.071 545.443C580.15 552.93 578.34 553.266 570.853 554.187C565.24 554.881 559.822 557.113 554.296 558.576C550.254 559.649 546.169 561.458 542.105 561.469ZM688.162 656.857C681.118 656.889 674.075 657.204 667.042 657.009C665.168 656.954 662.6 656.044 661.603 654.646C649.239 637.342 647.646 618.78 655.817 599.264C656.142 598.484 656.813 597.856 657.713 596.631C665.482 602.504 673.186 608.063 680.609 613.979C690.621 621.965 700.785 629.821 710.137 638.523C715.424 643.453 719.239 649.976 724.548 656.846C711.534 656.846 699.853 656.813 688.162 656.846V656.857ZM667.227 596.967C678.019 596.967 687.555 596.826 697.09 597.119C698.445 597.162 700.568 599.037 700.937 600.435C703.494 610.122 705.683 619.917 708.121 630.244C694.576 619.224 681.367 608.464 667.227 596.967ZM715.489 636.475C711.458 623.84 708.468 610.891 704.74 596.935H704.751C710.678 596.946 715.338 596.675 719.932 597.13C721.037 597.238 722.609 599.633 722.771 601.106C724.364 615.226 725.697 629.377 727.149 643.518C727.398 645.999 727.821 648.459 728.287 651.786C722.186 647.549 717.472 642.684 715.489 636.475ZM758.042 631.945C757.359 639.964 757.89 648.091 757.89 656.889C750.663 656.9 743.478 657.139 736.327 656.683C735.005 656.597 732.978 653.823 732.762 652.111C731.331 640.668 730.335 629.182 729.143 617.707C728.492 611.509 727.756 605.332 726.856 597.401C735.286 603.837 742.124 609.634 749.546 614.543C756.07 618.866 758.714 624.1 758.042 631.945ZM185.791 545.887C186.929 536.872 188.056 527.856 189.204 518.841C189.334 517.779 190.071 516.598 189.768 515.731C189.313 514.42 188.197 513.347 187.362 512.177C186.495 513.076 185.011 513.878 184.859 514.886C183.797 522.027 182.855 529.178 182.161 536.362C180.481 553.797 178.964 571.232 177.372 588.667C177.296 589.512 177.09 590.346 176.786 592.08C170.198 584.603 164.163 577.766 158.149 570.907C153.392 565.478 148.722 559.974 143.846 554.653C140.042 551.034 138.731 554.545 140.432 558.056C146.609 565.587 153.099 572.857 159.525 580.182C164.293 585.611 169.191 590.921 173.85 596.436C175.226 598.202 176.201 599.98 176.689 601.973C175.768 620.145 174.533 638.284 173.341 657.095C164.921 657.095 157.033 657.182 149.144 656.998C147.996 656.976 146.565 655.892 145.807 654.896C118.284 618.346 115.217 553.808 139.771 515.233C151.431 496.909 167.771 485.25 190.656 485.618C193.506 485.662 196.334 486.583 199.195 486.832C200.224 486.919 201.33 486.225 202.402 485.889C201.687 484.849 201.189 483.224 200.224 482.877C192.509 480.135 184.48 480.005 176.776 482.292C169.418 484.47 162.396 487.796 154.931 490.733C154.855 490.408 154.432 489.443 154.432 488.49C154.313 402.182 154.27 315.864 154.02 229.557C154.01 224.399 155.689 223.315 160.489 223.315C369.404 223.445 578.33 223.456 787.255 223.478H792.706V492.174C780.949 484.372 769.203 479.854 755.864 481.403C752.743 481.761 749.676 482.606 746.588 483.234C746.491 483.917 746.404 484.611 746.307 485.293C747.769 485.813 749.276 486.864 750.695 486.767C780.624 484.632 805.958 502.305 816.306 531.205C827.575 562.65 824.747 593.706 815.612 624.739C812.719 634.567 808.472 644.016 804.571 653.519C803.964 654.993 801.916 656.846 800.507 656.878C788.447 657.149 776.376 657.03 763.687 657.03C763.33 648.871 762.972 641.351 762.701 633.831C762.409 625.888 761.921 617.945 762.105 610.014C762.17 607.272 763.351 603.956 765.172 601.952C779.508 586.196 794.125 570.701 808.612 555.087C810.043 553.559 813.239 551.944 810.065 549.669C809.187 549.04 805.947 550.492 804.69 551.825C790.744 566.692 776.961 581.721 763.124 596.685C762.918 596.902 762.474 596.891 761.455 597.195C760.902 588.472 760.642 579.868 759.743 571.34C757.825 553.039 755.615 534.77 753.371 516.5C753.22 515.287 751.768 514.236 750.923 513.109C750.251 514.702 748.842 516.392 749.026 517.887C750.251 527.91 751.833 537.89 753.241 547.892C753.426 549.246 753.263 550.644 753.263 552.833C749.85 550.557 747.022 548.379 743.912 546.732C742.471 545.963 740.466 546.223 738.721 546.017C739.523 547.491 739.968 549.853 741.159 550.308C751.833 554.426 755.409 562.163 755.322 573.313C755.224 586.63 756.622 599.958 757.446 614.586C753.382 611.281 750.153 608.627 746.881 606.004C744.909 604.422 742.904 602.894 740.878 601.377C731.548 594.399 726.553 585.059 725.913 573.367C725.708 569.769 725.632 566.15 725.155 562.585C724.982 561.285 723.8 560.115 723.074 558.879C722.208 560.18 720.55 561.523 720.604 562.791C720.94 570.723 721.655 578.633 722.229 586.554C722.338 588.136 722.414 589.718 722.522 591.734C720.582 591.885 719.022 592.102 717.462 592.102C684.954 592.091 652.457 592.059 619.95 592.037C617.295 592.037 614.64 592.698 614.272 588.407C612.874 572.337 602.862 562.975 588.938 556.853C587.453 556.203 585.925 555.672 583.964 554.902C584.549 552.302 585.2 549.745 585.698 547.166C588.764 531.085 577.04 516.294 560.667 516.251C502.165 516.089 443.651 516.099 385.149 516.154C373.381 516.164 362.502 524.952 360.226 535.723C357.723 547.621 362.978 559.486 373.359 563.745C377.228 565.337 381.757 565.858 385.994 565.868C436.012 566.02 486.03 565.988 536.048 566.009H542.073C538.378 574.635 534.91 582.751 531.042 591.788H296.208C296.934 589.675 297.454 587.995 298.072 586.359C307.38 561.642 299.47 535.539 278.318 521.203C255.682 505.86 225.754 507.344 206.867 525.494C201.405 530.739 197.721 537.814 192.954 543.839C192 545.042 191.621 546.017 190.125 546.786C189.692 548.488 189.454 550.113 189.313 552.009C189.779 552.085 189.074 552.085 189.681 552.324C185.314 567.873 187.33 582.144 194.514 595.775C194.991 599.85 195.001 603.436 195.207 607.272V656.608H178.314C178.791 649.759 179.235 643.366 179.701 636.962C179.929 633.907 180.763 630.775 180.341 627.817C180.427 621.456 181.088 615.193 182.118 608.995C182.118 601.247 181.793 594.312 182.194 587.421C182.811 576.823 183.949 566.258 184.794 555.672M915.67 657.019C889.534 656.846 863.398 656.846 837.262 656.759C836.775 656.759 836.287 656.488 834.521 655.968C847.08 636.431 860.83 620.308 885.774 619.321C902.906 618.65 919.896 634.622 919.788 651.699C919.777 654.495 919.842 657.052 915.67 657.019Z" fill="#DDE0E7"/>
<path d="M785.662 59.3153C795.815 59.3153 805.904 59.207 815.992 59.4237C817.639 59.4562 819.264 60.9624 820.9 61.7859C819.199 62.5552 817.487 63.9964 815.786 63.9964C741.03 64.0506 666.284 63.9964 591.528 63.8013C589.263 63.8013 587.009 62.2518 584.744 61.4175C587.096 60.6156 589.447 59.1311 591.809 59.1094C610.404 58.9794 629.009 59.1419 647.603 59.207H654.083C654.711 55.2519 654.982 51.8278 655.827 48.5445C658.471 38.2071 664.171 30.3078 674.281 25.941C675.895 25.2366 677.456 23.6763 678.355 22.1159C687.436 6.3173 700.872 -1.54951 719.141 0.260074C737.703 2.10216 750.272 12.342 757.597 29.3543C758.193 30.7521 759.537 32.54 760.827 32.8217C776.636 36.2567 781.967 41.5987 785.034 57.5166C785.099 57.8633 785.272 58.1776 785.684 59.3045H785.662V59.3153ZM754.834 38.2505C751.768 21.9534 742.514 11.6919 727.68 6.64237C708.75 0.184224 690.719 8.46279 682.245 26.8404C681.584 28.2815 679.504 29.4301 677.846 29.9827C665.482 34.0895 658.417 45.2829 660.118 59.2828H666.327C700.807 59.3478 735.287 59.4562 769.766 59.4237C773.201 59.4237 776.625 58.5243 780.06 58.0367C778.944 54.2875 777.915 50.5166 776.669 46.8108C776.343 45.8572 775.325 45.1529 774.686 44.286C769.669 37.5136 762.43 37.5787 754.834 38.2505Z" fill="#DDE0E7"/>
<path d="M244.933 32.9192C243.232 31.7706 241.303 30.8496 239.851 29.4409C230.651 20.4689 216.489 17.6732 204.201 23.1562C192.152 28.5307 184.957 37.882 185.108 51.3726C185.26 64.2781 191.209 74.3988 203.118 79.925C214.679 85.2888 225.873 84.0752 236.123 76.0566C237.38 75.0706 239.309 74.9297 240.935 74.3988C240.328 76.1758 240.252 78.6031 239.017 79.6216C228.723 88.1494 216.901 90.0132 204.483 85.6572C191.328 81.0411 183.472 71.2889 181.067 57.6141C178.217 41.4145 186.289 26.2552 200.929 19.2444C215.34 12.342 232.732 15.6469 243.578 27.4363C244.673 28.6282 245.41 30.1669 246.309 31.5431L244.911 32.9301H244.933V32.9192Z" fill="#DDE0E7"/>
<path d="M78.939 94.9109C80.6185 94.4667 82.2872 93.6865 83.9776 93.654C90.4683 93.524 96.9589 93.5348 103.45 93.7082C106.18 93.784 107.491 92.928 108.499 90.1974C110.84 83.8367 115.467 79.2965 122.391 79.0148C129.683 78.7222 134.538 83.2733 136.997 89.8615C138.092 92.798 139.49 93.6215 142.415 93.5673C151.788 93.4048 161.172 93.4806 170.545 93.5131C171.975 93.5131 173.503 93.4698 174.793 93.9574C175.584 94.25 176.505 95.5394 176.451 96.3196C176.407 97.0456 175.204 98.205 174.413 98.2917C171.921 98.5626 169.386 98.4326 166.861 98.4218C139.457 98.2592 112.053 98.1184 84.6603 97.88C82.7532 97.8583 80.8569 97.1756 78.9606 96.7964C78.9606 96.1679 78.939 95.5286 78.9281 94.9001H78.939V94.9109ZM132.327 93.4698C131.72 87.716 127.798 83.6525 122.867 83.4683C118.11 83.2841 113.7 87.4342 112.498 93.4698H132.327Z" fill="#DDE0E7"/>
<path d="M488.706 661.516C480.959 661.516 473.2 661.603 465.453 661.419C464.228 661.386 463.036 660.108 461.834 659.414C463.004 658.591 464.174 657.063 465.355 657.052C480.677 656.933 495.999 656.965 511.321 657.16C512.502 657.171 513.661 658.677 514.832 659.49C513.51 660.313 512.209 661.798 510.866 661.841C503.487 662.069 496.086 661.95 488.696 661.95V661.505H488.706V661.516Z" fill="#DDE0E7"/>
<path d="M397.696 370.65C398.249 360.28 397.859 351.85 399.278 343.734C404.057 316.46 418.035 295.33 444.702 285.752C472.052 275.934 498.73 278.741 521.756 297.801C540.014 312.917 547.307 333.635 547.653 356.878C547.892 372.742 548.39 388.67 544.099 404.23C534.499 439.003 505.491 459.536 468.476 457.662C433.357 455.896 405.704 431.699 399.983 397.165C398.422 387.782 398.314 378.149 397.696 370.65ZM497.31 329.983C490.397 319.05 477.058 314.781 464.998 318.183C451.984 321.857 442.741 333.288 442.167 347.906C441.625 361.787 441.516 375.721 442.167 389.591C442.763 402.28 447.476 413.365 459.981 418.978C478.304 427.202 498.35 417.158 502.641 397.1C504.83 381.009 505.134 364.745 503.812 348.567C502.793 342.152 500.745 335.412 497.31 329.983Z" fill="#DDE0E7"/>
<path d="M314.38 419.271C298.267 419.271 282.945 419.292 267.623 419.26C263.831 419.26 260.006 419.357 256.267 418.87C241.801 416.984 233.75 401.912 240.133 388.724C241.466 385.983 243.102 383.328 244.966 380.912C267.547 351.612 290.216 322.366 312.83 293.087C317.457 287.095 323.254 283.118 330.904 282.382C344.72 281.049 355.491 290.714 355.61 304.855C355.794 328.694 355.697 352.522 355.708 376.361V383.718C362.968 384.639 370.986 382.743 375.288 389.819C377.423 393.319 378.972 397.805 378.994 401.847C379.048 412.509 373.598 416.421 355.578 419.617C355.578 425.36 355.643 431.255 355.578 437.15C355.404 449.318 346.476 458.377 334.805 458.323C323.959 458.269 314.607 448.614 314.391 437.106C314.282 431.342 314.369 425.577 314.369 419.281H314.391L314.38 419.271ZM314.185 346.551C304.27 359.684 295.287 371.582 286.044 383.827H314.185V346.551Z" fill="#DDE0E7"/>
<path d="M683.665 383.501C700.774 385.875 706.604 390.686 706.279 401.651C705.965 412.563 699.669 417.667 683.546 419.574C683.546 425.154 683.556 430.832 683.546 436.521C683.513 448.874 674.964 457.944 663.282 458.019C651.049 458.106 642.662 449.351 642.684 436.532V419.086H635.965C620.08 419.086 604.184 419.043 588.299 419.14C579.749 419.195 572.717 416.778 568.512 408.641C564.167 400.243 565.652 392.419 571.048 385.311C594.638 354.288 618.368 323.363 642.098 292.437C647.787 285.026 655.275 281.222 664.745 282.555C676.556 284.224 683.556 292.86 683.6 305.809C683.686 329.463 683.632 353.107 683.632 376.762V383.491H683.665V383.501ZM642.629 346.27C632.574 359.511 623.493 371.474 614.055 383.902H642.629V346.27Z" fill="#DDE0E7"/>
<path d="M223.901 570.051C223.424 573.519 221.625 576.206 217.573 576.498C213.964 576.758 211.071 573.074 211.19 568.74C211.299 565.012 212.956 562.488 216.879 562.271C220.477 562.076 223.911 565.901 223.901 570.051Z" fill="#DDE0E7"/>
<path d="M265.933 569.325C265.424 573.107 263.657 575.87 259.518 575.957C255.173 576.054 253.515 573.161 253.493 569.282C253.472 565.511 255.498 562.899 259.28 562.845C263.213 562.791 265.424 565.337 265.933 569.325Z" fill="#DDE0E7"/>
<path d="M559.41 585.85C559.432 580.421 561.957 577.885 565.988 577.17C570.192 576.433 574.06 577.777 575.989 581.862C577.701 585.503 576.162 588.309 572.868 590.585C571.438 591.582 570.81 593.695 569.672 595.179C569.022 596.014 568.057 596.61 567.234 597.303C566.605 596.36 565.24 595.147 565.478 594.518C566.28 592.373 567.635 590.422 568.783 588.407C569.704 586.782 571.796 584.441 571.319 583.65C569.65 580.909 567.331 581.721 564.991 583.585C563.636 584.669 561.664 584.961 559.399 585.828V585.85H559.41Z" fill="#DDE0E7"/>
<path d="M567.483 600.316C569.119 602.634 570.842 604.021 570.701 605.181C570.549 606.394 568.74 607.792 567.364 608.258C566.811 608.442 564.72 606.394 564.709 605.343C564.687 604.021 566.085 602.689 567.483 600.305V600.316Z" fill="#DDE0E7"/>
</g>
<defs>
<clipPath id="clip0_2_27">
<rect width="946" height="713.409" fill="white"/>
</clipPath>
</defs>
</svg>
