<?xml version="1.0" encoding="UTF-8" standalone="no"?><!DOCTYPE svg PUBLIC "-//W3C//DTD SVG 1.1//EN" "http://www.w3.org/Graphics/SVG/1.1/DTD/svg11.dtd"><svg width="100%" height="100%" viewBox="0 0 200 170" version="1.1" xmlns="http://www.w3.org/2000/svg" xmlns:xlink="http://www.w3.org/1999/xlink" xml:space="preserve" xmlns:serif="http://www.serif.com/" style="fill-rule:evenodd;clip-rule:evenodd;stroke-linecap:round;stroke-linejoin:round;"><rect id="no_data" x="0" y="0" width="200" height="170" style="fill:none;"/><clipPath id="_clip1"><rect x="0" y="0" width="200" height="170"/></clipPath><g clip-path="url(#_clip1)"><g id="Background"><rect x="0" y="0" width="285.714" height="285.714" style="fill:#fff;"/></g><g id="Object"><g><path d="M100.006,126.234c0.822,-0 1.488,-0.667 1.488,-1.489c0,-0.821 -0.666,-1.488 -1.488,-1.488c-0.822,0 -1.488,0.667 -1.488,1.488c-0,0.822 0.666,1.489 1.488,1.489Z" style="fill:#cfcfcf;fill-rule:nonzero;"/><path d="M56.768,14.182l-0,6.53" style="fill:none;fill-rule:nonzero;stroke:#bababa;stroke-width:1.52px;"/><path d="M53.487,17.447l6.546,0" style="fill:none;fill-rule:nonzero;stroke:#bababa;stroke-width:1.52px;"/><path d="M131.109,55.37c-12.711,-0 -25.651,-0.517 -37.755,-3.888c-11.877,-3.296 -22.781,-9.69 -32.501,-17.086c-6.364,-4.814 -12.15,-8.657 -20.412,-8.08c-8.083,0.438 -15.812,3.456 -22.052,8.611c-10.51,9.204 -8.93,26.259 -4.723,38.196c6.318,18.028 25.545,30.587 41.886,38.713c18.878,9.431 39.624,14.914 60.416,18.057c18.224,2.779 41.643,4.784 57.438,-7.107c14.504,-10.95 18.483,-35.918 14.929,-52.776c-0.863,-4.98 -3.514,-9.474 -7.457,-12.636c-10.19,-7.457 -25.393,-2.475 -36.844,-2.232c-4.253,0.091 -8.581,0.197 -12.925,0.228Z" style="fill:#f2f2f2;fill-rule:nonzero;"/><path d="M127.689,13.853c0.822,0 1.488,-0.666 1.488,-1.488c0,-0.822 -0.666,-1.488 -1.488,-1.488c-0.822,-0 -1.489,0.666 -1.489,1.488c0,0.822 0.667,1.488 1.489,1.488Z" style="fill:#cfcfcf;fill-rule:nonzero;"/><path d="M21.784,118.319l-0,6.531" style="fill:none;fill-rule:nonzero;stroke:#bababa;stroke-width:1.52px;"/><path d="M18.518,121.584l6.531,0" style="fill:none;fill-rule:nonzero;stroke:#bababa;stroke-width:1.52px;"/><path d="M145.431,118.716l-96.303,-0c-0.644,-0 -1.281,-0.141 -1.866,-0.412c-0.584,-0.27 -1.104,-0.665 -1.521,-1.155c-0.417,-0.492 -0.723,-1.068 -0.896,-1.689c-0.173,-0.621 -0.209,-1.272 -0.106,-1.908l12.317,-74.691c0.167,-1.039 0.699,-1.985 1.5,-2.667c0.802,-0.683 1.821,-1.056 2.874,-1.054l96.303,0c0.644,0 1.28,0.141 1.865,0.412c0.583,0.27 1.102,0.665 1.519,1.157c0.416,0.491 0.72,1.067 0.891,1.688c0.17,0.621 0.205,1.272 0.099,1.907l-12.256,74.691c-0.17,1.046 -0.709,1.996 -1.52,2.679c-0.812,0.682 -1.84,1.052 -2.9,1.042Z" style="fill:#d2d2d2;fill-rule:nonzero;"/><path d="M146.617,33.187l-57.163,-25.523c-1.685,-0.752 -3.66,0.004 -4.413,1.689l-18.117,40.577c-0.752,1.686 0.004,3.661 1.689,4.414l57.162,25.522c1.686,0.752 3.662,-0.004 4.414,-1.689l18.117,-40.577c0.753,-1.685 -0.003,-3.661 -1.689,-4.413Z" style="fill:#fff;fill-rule:nonzero;stroke:#bababa;stroke-width:1.52px;"/><path d="M145.006,118.686l-96.774,-0c-1.177,-0.005 -2.305,-0.476 -3.136,-1.31c-0.832,-0.833 -1.298,-1.963 -1.298,-3.14l-0,-68.237c-0.014,-0.592 0.09,-1.181 0.306,-1.732c0.216,-0.551 0.541,-1.054 0.954,-1.478c0.413,-0.425 0.906,-0.762 1.452,-0.993c0.545,-0.232 1.13,-0.352 1.723,-0.353l35.249,-0c0.818,0.003 1.62,0.231 2.316,0.66c0.697,0.429 1.262,1.041 1.633,1.77l5.027,9.841c0.37,0.73 0.935,1.344 1.632,1.772c0.697,0.429 1.499,0.657 2.317,0.658l48.599,0c1.175,0 2.304,0.467 3.136,1.299c0.831,0.832 1.299,1.96 1.299,3.136l-0,53.657c-0,1.177 -0.467,2.306 -1.299,3.14c-0.831,0.834 -1.959,1.305 -3.136,1.31Z" style="fill:#fff;fill-rule:nonzero;stroke:#bababa;stroke-width:1.52px;"/><path d="M110.332,89.055c-5.59,-0.003 -11.056,1.652 -15.706,4.756c-4.65,3.104 -8.275,7.517 -10.417,12.681c-2.141,5.164 -2.703,10.848 -1.614,16.331c1.089,5.484 3.779,10.521 7.731,14.476c3.952,3.954 8.988,6.647 14.472,7.74c5.482,1.092 11.166,0.533 16.331,-1.607c5.166,-2.138 9.581,-5.761 12.687,-10.409c3.106,-4.648 4.764,-10.113 4.764,-15.704c0,-7.493 -2.975,-14.68 -8.272,-19.98c-5.297,-5.301 -12.482,-8.28 -19.976,-8.284Z" style="fill:#fff;fill-rule:nonzero;stroke:#bababa;stroke-width:1.52px;"/><path d="M130.44,137.821l7.533,7.533" style="fill:none;fill-rule:nonzero;stroke:#bababa;stroke-width:1.52px;"/><path d="M137.121,141.694l-2.339,2.449c-1.049,1.098 -1.01,2.837 0.087,3.886l20.31,19.415c1.096,1.05 2.837,1.01 3.886,-0.088l2.34,-2.448c1.05,-1.096 1.01,-2.837 -0.088,-3.886l-20.308,-19.415c-1.098,-1.049 -2.839,-1.01 -3.888,0.087Z" style="fill:#d2d2d2;fill-rule:nonzero;"/><path d="M171.933,3.794l-0,6.545" style="fill:none;fill-rule:nonzero;stroke:#bababa;stroke-width:1.52px;"/><path d="M168.652,7.074l6.546,0" style="fill:none;fill-rule:nonzero;stroke:#bababa;stroke-width:1.52px;"/><g><path d="M104.648,111.624l11.338,11.337" style="fill:none;fill-rule:nonzero;stroke:#bababa;stroke-width:1.52px;"/><path d="M104.5,123.136l11.634,-11.634" style="fill:none;fill-rule:nonzero;stroke:#bababa;stroke-width:1.52px;"/></g></g></g></g></svg>