<?xml version="1.0" encoding="utf-8"?>
<!-- Generator: Adobe Illustrator 21.1.0, SVG Export Plug-In . SVG Version: 6.00 Build 0)  -->
<!DOCTYPE svg PUBLIC "-//W3C//DTD SVG 1.1//EN" "http://www.w3.org/Graphics/SVG/1.1/DTD/svg11.dtd">
<svg version="1.1" id="Layer_1" xmlns="http://www.w3.org/2000/svg" xmlns:xlink="http://www.w3.org/1999/xlink" x="0px" y="0px"
	 viewBox="0 0 101.6 32.9" style="enable-background:new 0 0 101.6 32.9;" xml:space="preserve">
<style type="text/css">
	.st0{fill:#35B454;}
</style>
<g>
	<g>
		<path class="st0" d="M14.3,7.5H0.3V12l9.2,0c0.6,0,1,0.5,1,1v7.9h-2c-0.6,0-1-0.5-1-1v-5.7H3.6c-2,0-3.6,1.6-3.6,3.6v4
			c0,2,1.6,3.6,3.6,3.6h14.3V11.1C17.9,9.1,16.3,7.5,14.3,7.5z"/>
	</g>
	<g>
		<path class="st0" d="M31.4,20.9h-2c-0.6,0-1-0.5-1-1V7.5h-3.9c-2,0-3.6,1.6-3.6,3.6v10.7c0,2,1.6,3.6,3.6,3.6h14.3V0h-7.5
			L31.4,20.9z"/>
	</g>
	<g>
		<path class="st0" d="M52.3,20.9h-2c-0.6,0-1-0.5-1-1V7.5h-7.5v14.3c0,2,1.6,3.6,3.6,3.6h6.9v2.2H42.1v5.2h14.1
			c2,0,3.6-1.6,3.6-3.6V7.5h-7.5V20.9z"/>
	</g>
	<g>
		<path class="st0" d="M77.1,7.5H62.7v14.3c0,2,1.6,3.6,3.6,3.6h14.1v-4.5h-9.2c-0.6,0-1-0.5-1-1V12h2c0.6,0,1,0.5,1,1v5.7h3.9
			c2,0,3.6-1.6,3.6-3.6v-4C80.7,9.1,79.1,7.5,77.1,7.5z"/>
	</g>
	<g>
		<path class="st0" d="M98,7.5H83.7v17.9h7.5V12h2c0.6,0,1,0.5,1,1v12.4h7.5V11.1C101.6,9.1,100,7.5,98,7.5z"/>
	</g>
</g>
</svg>
